<svg width="156" height="51" viewBox="0 0 156 51" fill="none" xmlns="http://www.w3.org/2000/svg">
<g clip-path="url(#clip0_512_83)">
<path d="M27.1156 10.9938C26.5729 11.9522 17.4363 27.4112 17.4363 27.4112C17.4137 27.4112 12.6758 35.0449 12.6758 35.0449C12.6079 36.9054 11.8277 48.914 11.6016 51C13.6256 50.9662 18.4427 50.9662 20.4667 51C20.5233 47.4369 21.0321 35.417 21.0321 35.417L36.5462 10.9938C34.2507 11.0276 28.9475 11.0276 27.1156 10.9938Z" fill="#1D3034"/>
<path d="M11.6016 31.8877L0 10.9825C2.13714 11.0164 7.63265 11.0164 9.52102 10.9825C9.89417 11.8395 10.9797 14.681 12.1783 17.015C14.6095 21.7283 14.3946 27.3774 11.6016 31.8877Z" fill="#65B44A"/>
<path d="M75.2296 22.044C74.2119 19.7325 72.6967 17.7029 70.6952 15.9551C68.6825 14.2187 66.387 12.9558 63.7976 12.1778C61.2081 11.411 58.5056 11.0276 55.69 11.0276C52.4447 11.0276 49.403 11.49 46.5761 12.4033C43.7491 13.3279 41.2728 14.6923 39.1696 16.4738C37.0663 18.2666 35.472 20.5331 34.3751 23.2618C33.2896 26.0018 32.7468 28.8658 32.7468 31.8539C32.7468 34.5939 33.1878 37.1309 34.0472 39.4762C34.9179 41.8329 36.3653 43.9076 38.378 45.7117C40.3908 47.5271 42.788 48.8576 45.581 49.7033C48.374 50.549 51.28 50.9662 54.2992 50.9662C57.4992 50.9662 60.541 50.5152 63.447 49.5905C66.3418 48.6659 68.8068 47.2452 70.8309 45.3396C72.855 43.4227 74.3476 41.1338 75.3087 38.4953C76.2812 35.8455 76.7561 33.0716 76.7561 30.1625C76.7561 27.073 76.2473 24.3668 75.2296 22.044ZM67.1785 36.2401C66.5566 38.0893 65.6181 39.6679 64.3743 40.9759C63.1417 42.2952 61.6717 43.2649 59.9756 43.9076C58.2681 44.5503 56.4815 44.866 54.6158 44.866C52.1394 44.866 49.8326 44.3248 47.6955 43.2423C45.5584 42.1599 43.9753 40.5813 42.9463 38.5178C41.906 36.4544 41.3972 34.1992 41.3972 31.7524C41.3972 29.1026 41.9286 26.6558 43.0028 24.3781C44.0658 22.1117 45.6601 20.3188 47.7747 19.0108C49.9005 17.7029 52.3769 17.0489 55.2377 17.0489C57.0469 17.0489 58.7883 17.342 60.4392 17.9284C62.0901 18.526 63.5036 19.4393 64.6796 20.6797C65.8556 21.9087 66.7149 23.3858 67.269 25.0997C67.8344 26.8249 68.1058 28.6065 68.1058 30.4782C68.1058 32.474 67.8005 34.3909 67.1785 36.2401Z" fill="#1D3034"/>
<path d="M111.233 51C111.233 51 103.453 50.9549 100.661 51L89.8165 34.8645L89.3755 45.2607L89.285 51L84.8977 50.9324C84.3775 50.9324 82.8397 50.9549 80.2842 51C80.6008 47.3016 80.8383 43.4115 80.9966 40.7391C81.0644 39.5552 81.1323 38.2134 81.2114 36.725L86.4468 29.8581L87.3288 28.7079L87.6907 28.2344L89.0589 26.4528L89.5904 25.7537C89.8052 25.4718 90.0314 25.1787 90.2575 24.8855C90.4158 24.6712 90.5741 24.457 90.7437 24.2428L91.3543 23.4422L92.3042 22.2019L93.9325 20.0708L94.577 19.2251L94.9049 18.7853C97.811 14.9967 100.434 11.5576 100.853 10.9825C100.853 10.9825 107.784 11.0276 110.826 10.9825L95.5608 29.7228L111.233 51Z" fill="#1D3034"/>
<path d="M91.0378 10.9825C90.6872 16.8572 88.5953 22.495 85.0221 27.1857L81.4602 31.8651C81.6298 28.5501 82.0369 10.9938 82.0369 10.9938C84.3889 11.0276 88.6066 11.0276 91.0378 10.9825Z" fill="#65B44A"/>
<path d="M90.2575 24.8629V24.8855C90.0313 25.1786 89.8052 25.4718 89.5903 25.7537L90.2575 24.8629Z" fill="#1D3034"/>
<path d="M154.462 22.044C153.456 19.755 151.952 17.7367 149.973 16.0002L145.801 23.3632C146.072 23.9158 146.309 24.4908 146.513 25.0997C147.067 26.8249 147.35 28.6064 147.35 30.4782C147.35 32.474 147.033 34.3909 146.411 36.2401C145.789 38.0893 144.851 39.6679 143.618 40.9759C142.374 42.2952 140.904 43.2649 139.208 43.9076C137.501 44.5503 135.714 44.866 133.848 44.866C131.372 44.866 129.065 44.3248 126.928 43.2423C124.791 42.1598 123.208 40.5812 122.179 38.5178C121.15 36.4543 120.641 34.1992 120.641 31.7524C120.641 29.1026 121.161 26.6558 122.235 24.3781C122.45 23.9383 122.676 23.5098 122.937 23.1039L118.922 16.0566C118.741 16.1919 118.572 16.3272 118.402 16.4738C116.299 18.2666 114.705 20.533 113.619 23.2618C112.522 26.0018 111.991 28.8658 111.991 31.8539C111.991 34.5938 112.42 37.1309 113.291 39.4762C114.162 41.8328 115.598 43.9076 117.611 45.7117C119.623 47.5271 122.032 48.8576 124.814 49.7033C127.607 50.549 130.513 50.9662 133.532 50.9662C136.732 50.9662 139.774 50.5151 142.68 49.5905C145.586 48.6659 148.039 47.2452 150.063 45.3396C152.088 43.4227 153.58 41.1338 154.553 38.4952C155.514 35.8454 156 33.0716 156 30.1625C156 27.073 155.48 24.3668 154.462 22.044Z" fill="#1D3034"/>
<path d="M132.378 28.4261L134.369 30.3768L136.359 28.4261C138.055 26.7573 146.524 18.1201 146.524 12.1101C146.524 5.42363 141.074 -0.011261 134.369 -0.011261C127.663 -0.011261 122.213 5.42363 122.213 12.1101C122.213 18.1313 130.682 26.7573 132.378 28.4261ZM134.369 5.63787C137.953 5.63787 140.87 8.547 140.87 12.1214C140.87 14.1623 137.772 18.6049 134.369 22.3485C130.965 18.6049 127.867 14.1623 127.867 12.1214C127.867 8.547 130.784 5.63787 134.369 5.63787Z" fill="#65B44A"/>
<path d="M134.369 32.4289C132.537 32.4289 131.055 33.906 131.055 35.7327C131.055 37.5594 132.537 39.0365 134.369 39.0365C136.2 39.0365 137.682 37.5594 137.682 35.7327C137.682 33.906 136.189 32.4289 134.369 32.4289Z" fill="#65B44A"/>
</g>
<defs>
<clipPath id="clip0_512_83">
<rect width="156" height="51" fill="white"/>
</clipPath>
</defs>
</svg>
